<svg width="90" height="34" viewBox="0 0 90 34" fill="none" xmlns="http://www.w3.org/2000/svg">
<path d="M20.468 22.296C19.508 23.016 18.5 23.544 17.444 23.88C16.412 24.192 15.38 24.276 14.348 24.132C13.316 23.988 12.428 23.544 11.684 22.8C11.012 24.936 10.556 27.048 10.316 29.136C10.22 29.52 10.052 29.868 9.812 30.18C9.38 31.452 8.432 32.304 6.968 32.736C5.528 33.144 4.184 33.072 2.936 32.52C2.36 32.256 1.88 31.872 1.496 31.368C1.112 30.864 0.92 30.252 0.92 29.532C2.576 23.796 4.172 19.092 5.708 15.42C6.044 14.652 6.308 14.028 6.5 13.548C6.716 13.068 6.908 12.66 7.076 12.324C7.244 11.988 7.388 11.7 7.508 11.46C7.652 11.196 7.82 10.908 8.012 10.596C8.444 9.876 8.936 9.036 9.488 8.076C10.064 7.092 10.544 6.36 10.928 5.88C11.336 5.4 11.756 4.992 12.188 4.656C12.644 4.296 13.136 3.96 13.664 3.648C14.216 3.336 14.9 2.928 15.716 2.424C16.532 1.92 17.396 1.62 18.308 1.524C19.244 1.404 20.132 1.476 20.972 1.74C22.748 2.292 24.056 3.528 24.896 5.448C25.616 7.224 25.736 9.612 25.256 12.612C24.512 17.196 22.916 20.424 20.468 22.296ZM12.944 19.092C14.912 18.66 16.28 17.376 17.048 15.24C17.696 13.44 17.828 11.4 17.444 9.12C16.892 10.056 16.388 11.028 15.932 12.036C15.5 13.044 15.104 13.944 14.744 14.736C13.952 16.512 13.352 17.964 12.944 19.092ZM36.396 24.672C35.94 24.888 35.496 25.056 35.064 25.176C34.632 25.296 34.128 25.416 33.552 25.536C32.04 25.848 30.948 26.028 30.276 26.076C30.348 26.316 30.708 26.604 31.356 26.94C31.788 27.012 32.256 26.952 32.76 26.76C33.288 26.544 33.828 26.352 34.38 26.184C34.956 25.992 35.508 25.884 36.036 25.86C36.588 25.836 37.104 26.04 37.584 26.472C37.776 26.904 37.932 27.156 38.052 27.228C38.172 27.3 38.28 27.336 38.376 27.336C38.472 27.336 38.58 27.372 38.7 27.444C38.82 27.516 38.988 27.792 39.204 28.272C39.444 28.752 39.384 29.208 39.024 29.64C38.688 30.072 38.16 30.444 37.44 30.756C36.72 31.068 35.88 31.32 34.92 31.512C33.96 31.704 33 31.836 32.04 31.908C29.88 32.076 28.236 31.908 27.108 31.404C25.476 30.852 24.42 29.76 23.94 28.128C23.316 25.968 23.664 23.448 24.984 20.568C25.584 19.224 26.532 17.784 27.828 16.248C28.956 14.904 30.216 13.932 31.608 13.332C33.216 12.636 34.896 12.312 36.648 12.36C38.52 12.408 39.816 13.224 40.536 14.808C40.896 15.648 40.968 16.824 40.752 18.336C40.368 20.304 39.864 21.696 39.24 22.512C38.616 23.304 37.668 24.024 36.396 24.672ZM34.308 18.984C33.036 18.72 32.04 19.44 31.32 21.144C31.104 21.6 30.936 22.08 30.816 22.584C31.632 22.68 32.496 22.224 33.408 21.216C33.744 20.808 33.996 20.4 34.164 19.992C34.332 19.56 34.38 19.224 34.308 18.984ZM44.9432 15.096C45.2792 14.232 45.7472 13.584 46.3472 13.152C46.9712 12.696 47.5592 12.42 48.1112 12.324C48.6872 12.204 49.1552 12.264 49.5152 12.504C49.8992 12.744 50.0312 13.116 49.9112 13.62C50.3672 13.164 51.0272 12.744 51.8912 12.36C52.7552 11.976 53.4392 11.712 53.9432 11.568C54.4472 11.424 54.8792 11.352 55.2392 11.352C56.0312 11.4 56.2592 11.832 55.9232 12.648C56.3312 12.72 56.6312 12.984 56.8232 13.44C57.0152 13.896 57.0392 14.4 56.8952 14.952C56.7512 15.504 56.4272 16.044 55.9232 16.572C55.4192 17.1 54.7352 17.46 53.8712 17.652C53.0312 17.844 52.3232 18.288 51.7472 18.984C51.1952 19.656 50.7032 20.496 50.2712 21.504C49.5512 23.208 48.9032 25.62 48.3272 28.74C48.1352 29.868 47.3552 30.816 45.9872 31.584C44.6912 32.328 43.5032 32.544 42.4232 32.232C41.1992 31.896 40.6592 30.996 40.8032 29.532C40.8512 28.5 41.1632 27.132 41.7392 25.428C42.3152 23.7 42.7592 22.404 43.0712 21.54C43.3832 20.652 43.5992 19.98 43.7192 19.524L44.9432 15.096ZM62.5998 1.74C63.1278 1.092 63.7638 0.731998 64.5078 0.659998C65.2518 0.587999 65.9718 0.707999 66.6678 1.02C67.3638 1.308 67.9518 1.764 68.4318 2.388C68.9358 2.988 69.2118 3.66 69.2598 4.404L68.9358 5.448C69.1998 5.76 69.4278 6.012 69.6198 6.204C69.8358 6.396 69.9558 6.696 69.9798 7.104C70.1238 7.44 69.5238 8.772 68.1798 11.1C67.6278 12.06 67.0398 13.068 66.4158 14.124C65.8158 15.156 65.3238 16.08 64.9398 16.896C65.2278 16.824 65.5158 16.764 65.8038 16.716C66.0918 16.668 66.3798 16.608 66.6678 16.536C68.4438 16.08 69.6438 15.852 70.2678 15.852C70.8918 15.828 71.4078 15.888 71.8158 16.032C72.9198 16.464 73.4958 17.136 73.5438 18.048C73.2078 18.84 71.9478 19.944 69.7638 21.36C69.2598 21.672 68.8518 21.936 68.5398 22.152L65.4078 24.384C65.2398 24.648 65.1198 24.9 65.0478 25.14V25.176C65.0958 25.296 65.3958 25.464 65.9478 25.68C66.5238 25.896 67.0158 26.088 67.4238 26.256C68.3838 26.688 69.2358 27.276 69.9798 28.02C70.2198 28.284 70.3758 28.68 70.4478 29.208C70.5198 29.712 70.4358 30.18 70.1958 30.612C69.9798 31.044 69.5838 31.356 69.0078 31.548C68.4318 31.74 67.6278 31.656 66.5958 31.296C65.0838 30.624 63.2958 29.124 61.2318 26.796C60.9918 27.636 60.7518 28.464 60.5118 29.28C60.2958 30.072 60.0558 30.888 59.7918 31.728C59.4318 32.544 58.5918 32.928 57.2718 32.88C56.7438 32.88 56.2638 32.772 55.8318 32.556C55.4238 32.34 55.1838 32.052 55.1118 31.692C54.9198 31.164 54.8238 30.768 54.8238 30.504C54.8238 30.264 54.8838 29.976 55.0038 29.64C55.5558 28.248 55.9038 27.144 56.0478 26.328C56.1918 25.488 56.2878 24.996 56.3358 24.852C55.6638 24.42 55.2678 23.736 55.1478 22.8C55.0038 21.888 55.2198 21.072 55.7958 20.352C56.5638 20.064 57.1158 19.848 57.4518 19.704C57.5958 18.792 57.8358 17.808 58.1718 16.752C58.7718 14.856 59.2278 13.212 59.5398 11.82C59.8758 10.428 60.3438 8.856 60.9438 7.104C61.5678 5.328 62.1198 3.54 62.5998 1.74ZM85.6609 30.864C84.7249 31.632 83.6089 32.208 82.3129 32.592C81.0409 33 79.7569 33.216 78.4609 33.24C77.1649 33.264 75.9529 33.108 74.8249 32.772C73.6969 32.436 72.8089 31.908 72.1609 31.188C71.3929 30.372 71.1289 29.556 71.3689 28.74C71.4889 28.404 71.7049 28.14 72.0169 27.948C72.3049 27.756 72.6649 27.708 73.0969 27.804C73.3849 27.828 73.5889 27.756 73.7089 27.588C73.8529 27.396 73.9729 27.192 74.0689 26.976C74.1649 26.736 74.2729 26.52 74.3929 26.328C74.5129 26.112 74.7049 26.004 74.9689 26.004C79.1929 26.124 81.3889 25.752 81.5569 24.888C81.2689 24.624 80.9089 24.396 80.4769 24.204C80.0689 24.012 79.6489 23.82 79.2169 23.628C78.1609 23.148 77.4529 22.62 77.0929 22.044C76.6369 21.804 76.2889 21.228 76.0489 20.316C75.9289 19.908 75.8689 19.488 75.8689 19.056C75.8689 18.624 75.9409 18.228 76.0849 17.868C76.0129 16.932 76.5889 15.9 77.8129 14.772C78.1489 14.46 78.5689 14.124 79.0729 13.764C79.5769 13.404 80.3329 13.056 81.3409 12.72C82.3489 12.384 83.3449 12.144 84.3289 12C85.3369 11.832 86.2369 11.772 87.0289 11.82C87.8449 11.868 88.4209 12.06 88.7569 12.396C89.1169 12.732 89.3929 13.152 89.5849 13.656C89.8009 14.16 89.8729 14.652 89.8009 15.132C89.6089 16.212 88.7209 16.956 87.1369 17.364C85.1449 17.652 84.1849 17.916 84.2569 18.156C84.2569 18.204 84.1729 18.264 84.0049 18.336C85.8529 19.608 87.1369 20.856 87.8569 22.08C88.8409 23.76 88.9849 25.632 88.2889 27.696C88.4089 28.368 87.8089 29.208 86.4889 30.216C86.1769 30.456 85.9009 30.672 85.6609 30.864Z" fill="#6139FF"/>
</svg>
